<svg t="1717588935630" class="icon" viewBox="0 0 1024 1024" version="1.1" xmlns="http://www.w3.org/2000/svg" p-id="73400" width="32" height="32"><path d="M64 104.1c0-1.3 0.5-2.6 1.5-3.6s2.3-1.5 3.6-1.5H101c1.3 0 2.6 0.5 3.6 1.5s1.5 2.3 1.5 3.6V883H955c1.3 0 2.6 0.5 3.6 1.5s1.5 2.3 1.5 3.6V920c0 1.3-0.5 2.6-1.5 3.6s-2.3 1.5-3.6 1.5H64v-821z" p-id="73401" fill="#1296db"></path><path d="M372 114.1c0-3.9 1.5-7.7 4.4-10.7 3-3 6.8-4.4 10.7-4.4h137.7c3.9 0 7.7 1.5 10.7 4.4 3 3 4.4 6.8 4.4 10.7V827H372V114.1zM162 324.1c0-3.9 1.5-7.7 4.4-10.7 3-3 6.8-4.4 10.7-4.4h137.7c3.9 0 7.7 1.5 10.7 4.4 3 3 4.4 6.8 4.4 10.7V827H162V324.1zM582 534.1c0-3.9 1.5-7.7 4.4-10.7 3-3 6.8-4.4 10.7-4.4h137.7c3.9 0 7.7 1.5 10.7 4.4 3 3 4.4 6.8 4.4 10.7V827H582V534.1zM792 744.1c0-3.9 1.5-7.7 4.4-10.7s6.8-4.4 10.7-4.4h137.7c3.9 0 7.7 1.5 10.7 4.4 3 3 4.4 6.8 4.4 10.7V827H792v-82.9z" p-id="73402" fill="#1296db"></path></svg>