<svg width="34" height="34" viewBox="0 0 34 34" fill="none" xmlns="http://www.w3.org/2000/svg">
<path d="M22.9358 2.83334H11.0641C5.90742 2.83334 2.83325 5.90751 2.83325 11.0642V22.9217C2.83325 28.0925 5.90742 31.1667 11.0641 31.1667H22.9216C28.0783 31.1667 31.1524 28.0925 31.1524 22.9358V11.0642C31.1666 5.90751 28.0924 2.83334 22.9358 2.83334ZM24.0833 24.4375H9.91658C9.33575 24.4375 8.85408 23.9558 8.85408 23.375C8.85408 22.7942 9.33575 22.3125 9.91658 22.3125H24.0833C24.6641 22.3125 25.1458 22.7942 25.1458 23.375C25.1458 23.9558 24.6641 24.4375 24.0833 24.4375ZM24.0833 18.0625H9.91658C9.33575 18.0625 8.85408 17.5808 8.85408 17C8.85408 16.4192 9.33575 15.9375 9.91658 15.9375H24.0833C24.6641 15.9375 25.1458 16.4192 25.1458 17C25.1458 17.5808 24.6641 18.0625 24.0833 18.0625ZM24.0833 11.6875H9.91658C9.33575 11.6875 8.85408 11.2058 8.85408 10.625C8.85408 10.0442 9.33575 9.56251 9.91658 9.56251H24.0833C24.6641 9.56251 25.1458 10.0442 25.1458 10.625C25.1458 11.2058 24.6641 11.6875 24.0833 11.6875Z" fill="#141414"/>
</svg>
