<svg width="459" height="69" viewBox="0 0 459 69" fill="none" xmlns="http://www.w3.org/2000/svg">
<path d="M104.789 48.6022H88.2695V54.4988H101.916V58.8727H88.2695V64.8124H104.789V68.777H83.5364V44.6089H104.789V48.6022Z" fill="#1B1B1B"/>
<path d="M131.435 44.6088C132.842 44.6145 134.191 45.1763 135.186 46.1718C136.182 47.1673 136.744 48.5158 136.749 49.9237V63.4693C136.742 64.8766 136.179 66.2241 135.184 67.2192C134.189 68.2143 132.842 68.7766 131.435 68.7842H115.698C115 68.7851 114.309 68.6483 113.663 68.3815C113.018 68.1148 112.432 67.7233 111.938 67.2296C111.444 66.7359 111.053 66.1496 110.786 65.5044C110.519 64.8591 110.383 64.1676 110.383 63.4693V49.9237C110.374 49.2258 110.506 48.5332 110.771 47.8876C111.037 47.242 111.43 46.6569 111.928 46.1674C112.416 45.6627 113.002 45.2639 113.651 44.9958C114.3 44.7276 114.996 44.5959 115.698 44.6088H131.435ZM132.404 62.2484V51.1375C132.402 50.5571 132.171 50.001 131.76 49.5906C131.35 49.1802 130.794 48.9488 130.214 48.9469H116.876C116.302 48.9581 115.755 49.1937 115.352 49.6031C114.95 50.0125 114.723 50.5632 114.722 51.1375V62.2484C114.722 62.8198 114.949 63.3679 115.353 63.7719C115.757 64.176 116.305 64.403 116.876 64.403H130.178C130.464 64.4078 130.748 64.3556 131.013 64.2494C131.279 64.1433 131.521 63.9853 131.725 63.7848C131.928 63.5842 132.09 63.3451 132.201 63.0813C132.311 62.8175 132.368 62.5344 132.368 62.2484H132.404Z" fill="#1B1B1B"/>
<path d="M165.299 57.0772C165.291 58.2697 164.812 59.4106 163.965 60.2505C163.118 61.0904 161.974 61.5608 160.781 61.5589H146.955V68.7842H142.265V44.6088H160.781C161.377 44.5983 161.969 44.7115 162.519 44.9415C163.069 45.1714 163.566 45.513 163.977 45.9447C164.4 46.3576 164.735 46.8517 164.962 47.3972C165.189 47.9427 165.303 48.5284 165.299 49.1193V57.0772ZM159.553 57.2495C159.741 57.2518 159.928 57.2147 160.101 57.1405C160.274 57.0662 160.43 56.9566 160.558 56.8186C160.692 56.6835 160.798 56.5232 160.87 56.3469C160.941 56.1705 160.977 55.9818 160.975 55.7915V50.4049C160.979 50.2122 160.944 50.0207 160.873 49.8418C160.801 49.6629 160.694 49.5002 160.558 49.3635C160.428 49.2298 160.271 49.1239 160.098 49.0523C159.925 48.9808 159.74 48.9449 159.553 48.9469H146.955V57.2495H159.553Z" fill="#1B1B1B"/>
<path d="M191.866 44.6088C193.274 44.6145 194.622 45.1763 195.618 46.1718C196.613 47.1673 197.175 48.5158 197.181 49.9237V63.4693C197.173 64.8766 196.611 66.2241 195.616 67.2192C194.621 68.2143 193.273 68.7766 191.866 68.7842H176.165C175.467 68.7851 174.776 68.6483 174.13 68.3815C173.485 68.1148 172.899 67.7233 172.405 67.2296C171.911 66.7359 171.52 66.1496 171.253 65.5044C170.987 64.8591 170.85 64.1676 170.851 63.4693V49.9237C170.838 49.2273 170.967 48.5356 171.229 47.8901C171.49 47.2447 171.88 46.6587 172.373 46.1674C172.861 45.6627 173.448 45.2639 174.096 44.9958C174.745 44.7276 175.442 44.5959 176.144 44.6088H191.866ZM192.835 62.2484V51.1375C192.834 50.5632 192.607 50.0125 192.205 49.6031C191.802 49.1937 191.255 48.9581 190.681 48.9469H177.351C176.77 48.9488 176.214 49.1802 175.804 49.5906C175.393 50.001 175.162 50.5571 175.16 51.1375V62.2484C175.16 62.5344 175.217 62.8175 175.327 63.0813C175.438 63.3451 175.6 63.5842 175.804 63.7848C176.008 63.9853 176.249 64.1433 176.515 64.2494C176.781 64.3556 177.065 64.4078 177.351 64.403H190.652C191.223 64.403 191.772 64.176 192.176 63.7719C192.58 63.3679 192.807 62.8198 192.807 62.2484H192.835Z" fill="#1B1B1B"/>
<path d="M202.74 44.6089H207.422V64.439H222.814V68.7842H202.704L202.74 44.6089Z" fill="#1B1B1B"/>
<path d="M249.381 44.6088C250.789 44.6145 252.137 45.1763 253.133 46.1718C254.128 47.1673 254.69 48.5158 254.696 49.9237V63.4693C254.688 64.8766 254.126 66.2241 253.131 67.2192C252.136 68.2143 250.788 68.7767 249.381 68.7842H233.681C232.272 68.7823 230.921 68.2217 229.925 67.2254C228.928 66.2291 228.368 64.8783 228.366 63.4693V49.9237C228.356 49.2251 228.489 48.5318 228.755 47.886C229.022 47.2402 229.417 46.6555 229.917 46.1674C230.403 45.6622 230.988 45.263 231.636 44.9948C232.284 44.7266 232.98 44.5952 233.681 44.6088H249.381ZM250.358 62.2484V51.1375C250.354 50.5577 250.122 50.0027 249.712 49.5927C249.302 49.1827 248.747 48.9507 248.167 48.9469H234.859C234.278 48.9488 233.722 49.1802 233.312 49.5906C232.901 50.001 232.67 50.5571 232.668 51.1375V62.2484C232.668 62.5344 232.725 62.8175 232.835 63.0813C232.946 63.3451 233.108 63.5842 233.312 63.7848C233.516 63.9853 233.757 64.1433 234.023 64.2494C234.289 64.3556 234.573 64.4078 234.859 64.403H248.16C248.734 64.4013 249.285 64.1748 249.694 63.7721C250.104 63.3694 250.339 62.8225 250.351 62.2484H250.358Z" fill="#1B1B1B"/>
<path d="M284.416 53.6009C284.425 54.0602 284.34 54.5164 284.166 54.9414C283.992 55.3664 283.732 55.7511 283.403 56.0716L282.685 56.6965L283.403 57.3573C283.73 57.6705 283.988 58.0477 284.163 58.4654C284.337 58.8831 284.423 59.3323 284.416 59.7848V64.2665C284.426 64.8632 284.311 65.4554 284.08 66.0056C283.849 66.5558 283.506 67.0519 283.073 67.4626C282.655 67.8883 282.155 68.2249 281.603 68.452C281.051 68.6792 280.459 68.7922 279.862 68.7842H260.255V44.6088H279.841C280.439 44.6006 281.032 44.7149 281.584 44.9446C282.136 45.1744 282.636 45.5147 283.051 45.9447C283.482 46.3529 283.823 46.8456 284.054 47.3918C284.285 47.9381 284.401 48.5262 284.394 49.1192L284.416 53.6009ZM280.035 53.4286V50.0242C280.035 49.6432 279.883 49.2779 279.614 49.0085C279.345 48.7391 278.979 48.5877 278.598 48.5877H264.952V54.8722H278.598C278.787 54.8754 278.974 54.8386 279.147 54.7644C279.32 54.6901 279.476 54.58 279.604 54.4413C279.868 54.1708 280.015 53.8069 280.013 53.4286H280.035ZM280.035 63.3616V59.9572C280.038 59.7701 280.002 59.5843 279.93 59.4114C279.859 59.2385 279.753 59.082 279.618 58.9517C279.489 58.8163 279.332 58.7093 279.159 58.6376C278.986 58.5659 278.8 58.531 278.613 58.5351H264.966V64.8196H278.613C278.801 64.8228 278.988 64.786 279.162 64.7118C279.335 64.6375 279.49 64.5274 279.618 64.3886C279.748 64.2518 279.85 64.0907 279.918 63.9144C279.986 63.7382 280.018 63.5503 280.013 63.3616H280.035Z" fill="#1B1B1B"/>
<path d="M315.544 58.6716V64.1947C315.552 64.7919 315.44 65.3846 315.215 65.9375C314.989 66.4904 314.654 66.992 314.229 67.4123C313.822 67.8396 313.332 68.1785 312.788 68.4083C312.244 68.6381 311.659 68.7538 311.069 68.7482L294.464 68.7842C293.798 68.7976 293.139 68.6568 292.537 68.3727C291.935 68.0886 291.407 67.6689 290.995 67.1466C290.293 66.3006 289.92 65.2292 289.946 64.1301V62.7367C289.945 62.727 289.946 62.7172 289.949 62.7079C289.953 62.6987 289.958 62.6903 289.965 62.6834C289.972 62.6765 289.98 62.6712 289.989 62.668C289.999 62.6648 290.008 62.6637 290.018 62.6649H294.184C294.234 62.6649 294.256 62.6649 294.256 62.7295V62.9378C294.247 63.1702 294.293 63.4013 294.389 63.6131C294.485 63.8249 294.629 64.0117 294.809 64.1588C295.068 64.3586 295.386 64.4672 295.714 64.4676H309.784C310.007 64.4695 310.228 64.4169 310.427 64.3143C310.626 64.2117 310.797 64.0622 310.926 63.8787C311.119 63.6041 311.218 63.2736 311.206 62.9378V59.5406C311.205 59.3325 311.125 59.1324 310.983 58.9804C310.91 58.9018 310.821 58.8394 310.722 58.7973C310.623 58.7553 310.516 58.7344 310.408 58.7362H293.889C292.84 58.7343 291.833 58.317 291.091 57.5755C290.348 56.8339 289.929 55.8285 289.925 54.7788V49.2198C289.917 48.6231 290.03 48.0311 290.257 47.4793C290.484 46.9275 290.821 46.4274 291.246 46.0093C291.658 45.5776 292.154 45.236 292.704 45.0061C293.254 44.7761 293.846 44.6629 294.442 44.6734H311.012C311.608 44.6629 312.2 44.7761 312.75 45.0061C313.3 45.236 313.796 45.5776 314.208 46.0093C314.632 46.428 314.967 46.9284 315.193 47.4801C315.419 48.0319 315.531 48.6236 315.522 49.2198V50.7496C315.522 50.7999 315.522 50.8214 315.458 50.8214H311.277C311.227 50.8214 311.206 50.8214 311.206 50.7496V50.5413C311.21 50.3452 311.174 50.1504 311.099 49.9688C311.025 49.7872 310.915 49.6228 310.775 49.4855C310.631 49.3412 310.46 49.2278 310.271 49.1525C310.082 49.0771 309.879 49.0413 309.676 49.0474H295.785C295.586 49.0443 295.387 49.0815 295.202 49.1567C295.017 49.232 294.849 49.3438 294.708 49.4855C294.564 49.6209 294.45 49.7846 294.372 49.9662C294.294 50.1479 294.254 50.3437 294.256 50.5413V53.9816C294.25 54.0896 294.27 54.1973 294.312 54.2968C294.354 54.3963 294.418 54.4849 294.5 54.5562C294.573 54.6279 294.659 54.6845 294.754 54.7227C294.849 54.7609 294.951 54.78 295.053 54.7788H311.572C312.62 54.7826 313.625 55.2008 314.366 55.9421C315.107 56.6834 315.526 57.6878 315.529 58.7362L315.544 58.6716Z" fill="#1B1B1B"/>
<path d="M342.362 48.6022H325.843V54.4988H339.453V58.8727H325.864V64.8124H342.384V68.777H321.124V44.6089H342.384L342.362 48.6022Z" fill="#1B1B1B"/>
<path d="M365.869 68.7842L361.043 61.5589H352.647V68.7842H347.957V44.6089H367.198C368.393 44.6145 369.538 45.0913 370.384 45.9357C371.23 46.7802 371.708 47.9241 371.716 49.1193V57.0772C371.73 58.1906 371.313 59.2665 370.552 60.0793C369.809 60.9082 368.786 61.4348 367.679 61.5589L366.186 61.6953L370.911 68.7842H365.869ZM352.647 48.9469V57.2495H365.949C366.137 57.2527 366.324 57.216 366.497 57.1417C366.671 57.0675 366.826 56.9574 366.954 56.8186C367.088 56.6836 367.194 56.5232 367.265 56.3469C367.337 56.1706 367.373 55.9818 367.371 55.7916V50.4049C367.375 50.2122 367.34 50.0208 367.268 49.8419C367.197 49.6629 367.09 49.5003 366.954 49.3635C366.823 49.2295 366.667 49.1234 366.494 49.0518C366.321 48.9802 366.136 48.9445 365.949 48.9469H352.647Z" fill="#1B1B1B"/>
<path d="M397.177 44.6089H402.104L392.832 68.7842H386.475L377.239 44.6089H382.137L389.671 64.7837L397.177 44.6089Z" fill="#1B1B1B"/>
<path d="M428.879 48.6022H412.36V54.4988H426.006V58.8727H412.36V64.8124H428.879V68.777H407.62V44.6089H428.879V48.6022Z" fill="#1B1B1B"/>
<path d="M452.394 68.7842L447.56 61.5589H439.157V68.7842H434.467V44.6089H453.708C454.903 44.6145 456.048 45.0913 456.894 45.9357C457.74 46.7802 458.218 47.9241 458.226 49.1193V57.0772C458.24 58.1906 457.823 59.2665 457.062 60.0793C456.318 60.9082 455.296 61.4348 454.189 61.5589L452.695 61.6953L457.421 68.7842H452.394ZM439.157 48.9469V57.2495H452.48C452.669 57.252 452.857 57.2149 453.032 57.1407C453.206 57.0665 453.363 56.9568 453.493 56.8186C453.627 56.6836 453.732 56.5232 453.804 56.3469C453.875 56.1706 453.911 55.9818 453.909 55.7916V50.4049C453.913 50.2122 453.878 50.0208 453.807 49.8419C453.735 49.6629 453.628 49.5003 453.493 49.3635C453.223 49.0964 452.859 48.9466 452.48 48.9469H439.157Z" fill="#1B1B1B"/>
<path fill-rule="evenodd" clip-rule="evenodd" d="M31.9033 49.0424V61.3362C31.9014 62.3196 32.0937 63.2936 32.4692 64.2024C32.8446 65.1113 33.3958 65.937 34.0911 66.6324C34.7864 67.3277 35.6122 67.8789 36.521 68.2543C37.4299 68.6297 38.4039 68.822 39.3872 68.8201H66.8448C67.8279 68.8211 68.8015 68.6281 69.7099 68.2524C70.6183 67.8766 71.4437 67.3254 72.1388 66.6303C72.834 65.9351 73.3852 65.1097 73.761 64.2013C74.1367 63.2929 74.3297 62.3193 74.3287 61.3362V48.0348H54.1251V54.5921H67.1321V59.2534C67.1331 59.564 67.0726 59.8717 66.9542 60.1588C66.8358 60.4459 66.6618 60.7068 66.4422 60.9264C66.2225 61.146 65.9617 61.32 65.6746 61.4384C65.3874 61.5568 65.0797 61.6173 64.7692 61.6164H41.4557C41.1395 61.6161 40.8265 61.5525 40.5354 61.4291C40.2442 61.3057 39.9808 61.1252 39.7607 60.8981C39.5305 60.685 39.3476 60.4259 39.2239 60.1377C39.1002 59.8494 39.0384 59.5383 39.0425 59.2247V50.0988L31.9033 49.0424ZM51.0673 35.8824H64.7548C65.0681 35.881 65.3783 35.944 65.6662 36.0676C65.9541 36.1911 66.2135 36.3726 66.4283 36.6007C66.6594 36.8252 66.8422 37.0945 66.9657 37.3921C67.0892 37.6898 67.1507 38.0094 67.1465 38.3316V40.6874H74.3287V36.1985C74.3348 35.2164 74.1413 34.2433 73.7598 33.3382C73.3783 32.4332 72.8168 31.6152 72.1094 30.9339C71.4271 30.2199 70.6049 29.6543 69.6941 29.2725C68.7833 28.8906 67.8036 28.7007 66.8161 28.7146H49.8034L51.0673 35.8824Z" fill="#1B1B1B"/>
<path opacity="0.5" d="M14.1633 43.51L31.1206 38.4896L51.5971 50.1607L14.1633 43.51Z" fill="url(#paint0_linear_152_144)"/>
<path opacity="0.5" d="M8.92743 33.0023L26.5311 27.7881L51.597 50.1607L8.92743 33.0023Z" fill="url(#paint1_linear_152_144)"/>
<path opacity="0.5" d="M41.5205 0L34.8913 22.4804L51.5971 50.1606L41.5205 0Z" fill="url(#paint2_linear_152_144)"/>
<path opacity="0.5" d="M29.526 2.27679L23.4427 20.6417L51.597 50.1607L29.526 2.27679Z" fill="url(#paint3_linear_152_144)"/>
<path opacity="0.5" d="M0 17.2086L21.5898 10.8165L51.5971 50.1607L0 17.2086Z" fill="url(#paint4_linear_152_144)"/>
<defs>
<linearGradient id="paint0_linear_152_144" x1="30.467" y1="38.6836" x2="35.2925" y2="54.9847" gradientUnits="userSpaceOnUse">
<stop offset="0.31" stop-color="#36D9FF"/>
<stop offset="1" stop-color="#6832C5"/>
</linearGradient>
<linearGradient id="paint1_linear_152_144" x1="26.2068" y1="27.8853" x2="34.3145" y2="55.2741" gradientUnits="userSpaceOnUse">
<stop offset="0.31" stop-color="#36D9FF"/>
<stop offset="1" stop-color="#6832C5"/>
</linearGradient>
<linearGradient id="paint2_linear_152_144" x1="35.4146" y1="1.80482" x2="49.8789" y2="50.6667" gradientUnits="userSpaceOnUse">
<stop offset="0.31" stop-color="#36D9FF"/>
<stop offset="1" stop-color="#6832C5"/>
</linearGradient>
<linearGradient id="paint3_linear_152_144" x1="27.8574" y1="2.76857" x2="42.6682" y2="52.8012" gradientUnits="userSpaceOnUse">
<stop offset="0.31" stop-color="#36D9FF"/>
<stop offset="1" stop-color="#6832C5"/>
</linearGradient>
<linearGradient id="paint4_linear_152_144" x1="19.2339" y1="11.5158" x2="32.3588" y2="55.8531" gradientUnits="userSpaceOnUse">
<stop offset="0.31" stop-color="#36D9FF"/>
<stop offset="1" stop-color="#6832C5"/>
</linearGradient>
</defs>
</svg>
