<svg width="157" height="24" viewBox="0 0 157 24" fill="none" xmlns="http://www.w3.org/2000/svg">
<path d="M35.8976 16.6497H30.2386V18.6697H34.9134V20.1681H30.2386V22.2029H35.8976V23.561H28.6172V15.2817H35.8976V16.6497Z" fill="#1B1B1B"/>
<path d="M45.0256 15.2817C45.5079 15.2836 45.9699 15.4761 46.3109 15.8171C46.6519 16.1581 46.8444 16.6201 46.8463 17.1024V21.7428C46.8437 22.2248 46.6511 22.6864 46.3102 23.0273C45.9693 23.3682 45.5077 23.5609 45.0256 23.5635H39.6348C39.3956 23.5638 39.1587 23.5169 38.9377 23.4255C38.7167 23.3342 38.5158 23.2001 38.3467 23.0309C38.1775 22.8618 38.0434 22.6609 37.9521 22.4399C37.8607 22.2189 37.8138 21.9819 37.8141 21.7428V17.1024C37.8109 16.8633 37.8561 16.6261 37.947 16.4049C38.0379 16.1838 38.1727 15.9833 38.3431 15.8156C38.5103 15.6427 38.7112 15.5061 38.9334 15.4142C39.1556 15.3224 39.3944 15.2773 39.6348 15.2817H45.0256ZM45.3578 21.3245V17.5182C45.3571 17.3194 45.2779 17.1289 45.1373 16.9883C44.9967 16.8477 44.8062 16.7684 44.6073 16.7678H40.0383C39.8417 16.7716 39.6543 16.8523 39.5164 16.9926C39.3784 17.1328 39.3008 17.3215 39.3002 17.5182V21.3245C39.3002 21.5203 39.378 21.708 39.5164 21.8464C39.6548 21.9848 39.8426 22.0626 40.0383 22.0626H44.595C44.693 22.0643 44.7903 22.0464 44.8813 22.01C44.9723 21.9736 45.0551 21.9195 45.125 21.8508C45.1948 21.7821 45.2503 21.7002 45.2881 21.6098C45.326 21.5195 45.3455 21.4225 45.3455 21.3245H45.3578Z" fill="#1B1B1B"/>
<path d="M56.6267 19.553C56.6241 19.9615 56.4598 20.3524 56.1698 20.6401C55.8797 20.9278 55.4876 21.0889 55.079 21.0883H50.3427V23.5635H48.7361V15.2817H55.079C55.2833 15.2781 55.486 15.3169 55.6745 15.3957C55.863 15.4744 56.033 15.5915 56.1739 15.7393C56.3187 15.8808 56.4335 16.05 56.5113 16.2369C56.589 16.4238 56.6283 16.6244 56.6267 16.8268V19.553ZM54.6583 19.612C54.7229 19.6128 54.7868 19.6001 54.8462 19.5747C54.9055 19.5492 54.9588 19.5117 55.0028 19.4644C55.0487 19.4181 55.0849 19.3632 55.1094 19.3028C55.1339 19.2424 55.1462 19.1777 55.1455 19.1126V17.2672C55.1468 17.2013 55.1349 17.1357 55.1104 17.0744C55.0859 17.0131 55.0493 16.9573 55.0028 16.9105C54.958 16.8647 54.9043 16.8284 54.8451 16.8039C54.7859 16.7794 54.7224 16.7671 54.6583 16.7678H50.3427V19.612H54.6583Z" fill="#1B1B1B"/>
<path d="M65.7278 15.2817C66.2101 15.2836 66.672 15.4761 67.0131 15.8171C67.3541 16.1581 67.5466 16.6201 67.5485 17.1024V21.7428C67.5459 22.2248 67.3533 22.6864 67.0124 23.0273C66.6715 23.3682 66.2099 23.5609 65.7278 23.5635H60.3493C60.1101 23.5638 59.8732 23.5169 59.6522 23.4255C59.4311 23.3342 59.2303 23.2001 59.0611 23.0309C58.892 22.8618 58.7579 22.6609 58.6665 22.4399C58.5751 22.2189 58.5283 21.9819 58.5286 21.7428V17.1024C58.5244 16.8638 58.5684 16.6269 58.6581 16.4058C58.7477 16.1847 58.8811 15.9839 59.0502 15.8156C59.2173 15.6427 59.4183 15.5061 59.6405 15.4142C59.8627 15.3224 60.1015 15.2773 60.3419 15.2817H65.7278ZM66.0599 21.3245V17.5182C66.0593 17.3215 65.9818 17.1328 65.8438 16.9926C65.7059 16.8523 65.5185 16.7716 65.3218 16.7678H60.7553C60.5564 16.7684 60.366 16.8477 60.2254 16.9883C60.0848 17.1289 60.0055 17.3194 60.0048 17.5182V21.3245C60.0048 21.4225 60.0243 21.5195 60.0622 21.6098C60.1 21.7002 60.1555 21.7821 60.2254 21.8508C60.2952 21.9195 60.3781 21.9736 60.469 22.01C60.56 22.0464 60.6573 22.0643 60.7553 22.0626H65.312C65.5077 22.0626 65.6955 21.9848 65.8339 21.8464C65.9723 21.708 66.0501 21.5203 66.0501 21.3245H66.0599Z" fill="#1B1B1B"/>
<path d="M69.4527 15.2817H71.0569V22.0749H76.3296V23.5635H69.4404L69.4527 15.2817Z" fill="#1B1B1B"/>
<path d="M85.4306 15.2817C85.9129 15.2836 86.3748 15.4761 86.7159 15.8171C87.0569 16.1581 87.2493 16.6201 87.2513 17.1024V21.7428C87.2487 22.2248 87.056 22.6865 86.7151 23.0273C86.3743 23.3682 85.9127 23.5609 85.4306 23.5635H80.0521C79.5694 23.5628 79.1067 23.3708 78.7654 23.0295C78.4241 22.6882 78.232 22.2254 78.2314 21.7428V17.1024C78.228 16.8631 78.2734 16.6256 78.3648 16.4044C78.4562 16.1831 78.5916 15.9828 78.7628 15.8156C78.9293 15.6426 79.1298 15.5058 79.3517 15.4139C79.5735 15.322 79.812 15.277 80.0521 15.2817H85.4306ZM85.7652 21.3245V17.5182C85.7639 17.3196 85.6844 17.1295 85.544 16.989C85.4035 16.8486 85.2134 16.7691 85.0148 16.7678H80.4556C80.2568 16.7684 80.0663 16.8477 79.9257 16.9883C79.7851 17.1289 79.7058 17.3194 79.7052 17.5182V21.3245C79.7052 21.4225 79.7246 21.5195 79.7625 21.6098C79.8004 21.7002 79.8558 21.7821 79.9257 21.8508C79.9955 21.9195 80.0784 21.9736 80.1693 22.01C80.2603 22.0464 80.3576 22.0643 80.4556 22.0626H85.0123C85.209 22.062 85.3977 21.9844 85.5379 21.8465C85.6782 21.7085 85.7589 21.5212 85.7627 21.3245H85.7652Z" fill="#1B1B1B"/>
<path d="M97.4326 18.3621C97.4358 18.5194 97.4067 18.6757 97.347 18.8213C97.2873 18.9669 97.1984 19.0987 97.0857 19.2085L96.8397 19.4226L97.0857 19.6489C97.1976 19.7562 97.2862 19.8854 97.3459 20.0285C97.4056 20.1716 97.4351 20.3255 97.4326 20.4805V22.0158C97.4359 22.2202 97.3967 22.4231 97.3175 22.6116C97.2383 22.8001 97.1208 22.97 96.9725 23.1107C96.8293 23.2566 96.658 23.3719 96.469 23.4497C96.2799 23.5275 96.0771 23.5662 95.8727 23.5634H89.1558V15.2817H95.8653C96.0702 15.2788 96.2734 15.318 96.4626 15.3967C96.6517 15.4754 96.8228 15.592 96.9651 15.7393C97.1125 15.8791 97.2295 16.0479 97.3087 16.235C97.3878 16.4222 97.4275 16.6236 97.4252 16.8268L97.4326 18.3621ZM95.9318 18.3031V17.1368C95.9318 17.0063 95.8799 16.8811 95.7876 16.7889C95.6954 16.6966 95.5702 16.6447 95.4397 16.6447H90.7649V18.7976H95.4397C95.5043 18.7987 95.5683 18.7861 95.6277 18.7607C95.6871 18.7352 95.7404 18.6975 95.7841 18.65C95.8747 18.5573 95.9251 18.4327 95.9244 18.3031H95.9318ZM95.9318 21.7058V20.5396C95.9327 20.4755 95.9206 20.4118 95.896 20.3526C95.8715 20.2934 95.8351 20.2398 95.7891 20.1951C95.7447 20.1487 95.6911 20.1121 95.6318 20.0875C95.5725 20.063 95.5088 20.051 95.4446 20.0524H90.7698V22.2053H95.4446C95.5092 22.2064 95.5733 22.1938 95.6326 22.1684C95.692 22.1429 95.7453 22.1052 95.7891 22.0577C95.8336 22.0108 95.8685 21.9556 95.8917 21.8952C95.915 21.8348 95.9261 21.7705 95.9244 21.7058H95.9318Z" fill="#1B1B1B"/>
<path d="M108.096 20.0992V21.9912C108.099 22.1958 108.061 22.3989 107.984 22.5883C107.906 22.7777 107.791 22.9495 107.646 23.0935C107.507 23.2399 107.338 23.356 107.152 23.4347C106.966 23.5134 106.766 23.5531 106.563 23.5511L100.875 23.5635C100.647 23.5681 100.421 23.5198 100.215 23.4225C100.009 23.3252 99.8279 23.1814 99.6866 23.0025C99.446 22.7127 99.3184 22.3456 99.3273 21.9691V21.4918C99.327 21.4885 99.3273 21.4851 99.3284 21.4819C99.3295 21.4787 99.3313 21.4759 99.3337 21.4735C99.336 21.4711 99.3389 21.4693 99.3421 21.4682C99.3452 21.4671 99.3486 21.4668 99.3519 21.4672H100.779C100.796 21.4672 100.804 21.4672 100.804 21.4893V21.5607C100.801 21.6403 100.816 21.7195 100.849 21.792C100.882 21.8646 100.931 21.9285 100.993 21.9789C101.082 22.0474 101.191 22.0846 101.303 22.0847H106.123C106.2 22.0854 106.275 22.0674 106.344 22.0322C106.412 21.9971 106.47 21.9458 106.514 21.883C106.581 21.7889 106.614 21.6757 106.61 21.5607V20.3969C106.61 20.3256 106.583 20.2571 106.534 20.205C106.509 20.178 106.478 20.1567 106.444 20.1423C106.41 20.1279 106.374 20.1207 106.337 20.1213H100.678C100.319 20.1207 99.9738 19.9777 99.7193 19.7237C99.4649 19.4696 99.3213 19.1252 99.32 18.7656V16.8613C99.3172 16.6569 99.3559 16.454 99.4337 16.265C99.5115 16.076 99.6268 15.9047 99.7727 15.7615C99.9136 15.6136 100.084 15.4966 100.272 15.4178C100.461 15.339 100.663 15.3002 100.868 15.3038H106.544C106.748 15.3002 106.951 15.339 107.139 15.4178C107.328 15.4966 107.498 15.6136 107.639 15.7615C107.784 15.9049 107.899 16.0763 107.976 16.2653C108.054 16.4543 108.092 16.657 108.089 16.8613V17.3853C108.089 17.4026 108.089 17.4099 108.067 17.4099H106.635C106.618 17.4099 106.61 17.4099 106.61 17.3853V17.314C106.612 17.2468 106.599 17.1801 106.574 17.1179C106.548 17.0557 106.511 16.9993 106.463 16.9523C106.413 16.9029 106.355 16.864 106.29 16.8382C106.225 16.8124 106.156 16.8001 106.086 16.8022H101.328C101.259 16.8011 101.191 16.8139 101.128 16.8397C101.064 16.8655 101.007 16.9038 100.959 16.9523C100.909 16.9987 100.87 17.0547 100.843 17.117C100.817 17.1792 100.803 17.2463 100.804 17.314V18.4925C100.802 18.5295 100.808 18.5664 100.823 18.6005C100.837 18.6346 100.859 18.665 100.887 18.6894C100.912 18.7139 100.942 18.7333 100.974 18.7464C101.007 18.7595 101.042 18.766 101.077 18.7656H106.736C107.095 18.7669 107.439 18.9102 107.693 19.1641C107.947 19.4181 108.09 19.7622 108.091 20.1213L108.096 20.0992Z" fill="#1B1B1B"/>
<path d="M117.284 16.6497H111.625V18.6697H116.287V20.1681H111.632V22.2029H117.291V23.561H110.008V15.2817H117.291L117.284 16.6497Z" fill="#1B1B1B"/>
<path d="M125.336 23.5635L123.683 21.0883H120.806V23.5635H119.2V15.2817H125.791C126.201 15.2836 126.593 15.447 126.882 15.7363C127.172 16.0255 127.336 16.4174 127.339 16.8269V19.553C127.344 19.9344 127.201 20.303 126.94 20.5814C126.685 20.8654 126.335 21.0458 125.956 21.0883L125.444 21.135L127.063 23.5635H125.336ZM120.806 16.7678V19.612H125.363C125.428 19.6131 125.492 19.6006 125.551 19.5751C125.61 19.5497 125.664 19.5119 125.708 19.4644C125.753 19.4182 125.79 19.3632 125.814 19.3028C125.839 19.2424 125.851 19.1778 125.85 19.1126V17.2673C125.852 17.2013 125.84 17.1357 125.815 17.0744C125.791 17.0131 125.754 16.9574 125.708 16.9105C125.663 16.8646 125.609 16.8283 125.55 16.8037C125.491 16.7792 125.427 16.767 125.363 16.7678H120.806Z" fill="#1B1B1B"/>
<path d="M136.061 15.2817H137.749L134.573 23.5635H132.395L129.231 15.2817H130.909L133.49 22.193L136.061 15.2817Z" fill="#1B1B1B"/>
<path d="M146.922 16.6497H141.263V18.6697H145.937V20.1681H141.263V22.2029H146.922V23.561H139.639V15.2817H146.922V16.6497Z" fill="#1B1B1B"/>
<path d="M154.977 23.5635L153.321 21.0883H150.442V23.5635H148.836V15.2817H155.427C155.837 15.2836 156.229 15.447 156.518 15.7363C156.808 16.0255 156.972 16.4174 156.975 16.8269V19.553C156.98 19.9344 156.837 20.303 156.576 20.5814C156.321 20.8654 155.971 21.0458 155.592 21.0883L155.08 21.135L156.699 23.5635H154.977ZM150.442 16.7678V19.612H155.006C155.071 19.6129 155.136 19.6002 155.195 19.5748C155.255 19.5493 155.309 19.5118 155.353 19.4644C155.399 19.4182 155.435 19.3632 155.46 19.3028C155.484 19.2424 155.497 19.1778 155.496 19.1126V17.2673C155.497 17.2013 155.485 17.1357 155.461 17.0744C155.436 17.0131 155.4 16.9574 155.353 16.9105C155.261 16.819 155.136 16.7677 155.006 16.7678H150.442Z" fill="#1B1B1B"/>
<path fill-rule="evenodd" clip-rule="evenodd" d="M10.929 16.8006V21.012C10.9284 21.3489 10.9943 21.6826 11.1229 21.9939C11.2515 22.3053 11.4403 22.5881 11.6785 22.8263C11.9167 23.0645 12.1996 23.2534 12.5109 23.382C12.8223 23.5106 13.1559 23.5764 13.4928 23.5758H22.899C23.2358 23.5761 23.5693 23.51 23.8805 23.3813C24.1917 23.2526 24.4744 23.0637 24.7126 22.8256C24.9507 22.5875 25.1395 22.3047 25.2682 21.9935C25.397 21.6823 25.4631 21.3488 25.4627 21.012V16.4553H18.5416V18.7017H22.9974V20.2985C22.9977 20.4049 22.977 20.5103 22.9364 20.6087C22.8959 20.707 22.8363 20.7964 22.761 20.8716C22.6858 20.9469 22.5964 21.0065 22.4981 21.047C22.3997 21.0876 22.2943 21.1083 22.1879 21.108H14.2014C14.0931 21.1079 13.9859 21.0861 13.8861 21.0438C13.7864 21.0016 13.6961 20.9397 13.6207 20.862C13.5419 20.7889 13.4792 20.7002 13.4369 20.6014C13.3945 20.5027 13.3733 20.3961 13.3747 20.2887V17.1624L10.929 16.8006ZM17.4941 12.2923H22.183C22.2903 12.2918 22.3966 12.3134 22.4952 12.3557C22.5938 12.3981 22.6827 12.4602 22.7563 12.5384C22.8354 12.6153 22.8981 12.7075 22.9404 12.8095C22.9827 12.9114 23.0038 13.0209 23.0023 13.1313V13.9383H25.4627V12.4006C25.4648 12.0641 25.3985 11.7308 25.2678 11.4207C25.1371 11.1107 24.9448 10.8305 24.7025 10.5971C24.4687 10.3525 24.1871 10.1587 23.8751 10.0279C23.5631 9.89712 23.2274 9.83206 22.8891 9.83681H17.0611L17.4941 12.2923Z" fill="#1B1B1B"/>
<path opacity="0.5" d="M4.85205 14.9052L10.6611 13.1854L17.6758 17.1836L4.85205 14.9052Z" fill="url(#paint0_linear_166_342)"/>
<path opacity="0.5" d="M3.05835 11.3056L9.08884 9.51938L17.6757 17.1836L3.05835 11.3056Z" fill="url(#paint1_linear_166_342)"/>
<path opacity="0.5" d="M14.2238 0L11.9529 7.70112L17.6758 17.1836L14.2238 0Z" fill="url(#paint2_linear_166_342)"/>
<path opacity="0.5" d="M10.1147 0.779968L8.03076 7.07126L17.6756 17.1836L10.1147 0.779968Z" fill="url(#paint3_linear_166_342)"/>
<path opacity="0.5" d="M0 5.89522L7.39602 3.70544L17.6757 17.1836L0 5.89522Z" fill="url(#paint4_linear_166_342)"/>
<defs>
<linearGradient id="paint0_linear_166_342" x1="10.4372" y1="13.2519" x2="12.0903" y2="18.8361" gradientUnits="userSpaceOnUse">
<stop offset="0.31" stop-color="#36D9FF"/>
<stop offset="1" stop-color="#6832C5"/>
</linearGradient>
<linearGradient id="paint1_linear_166_342" x1="8.97776" y1="9.55269" x2="11.7552" y2="18.9353" gradientUnits="userSpaceOnUse">
<stop offset="0.31" stop-color="#36D9FF"/>
<stop offset="1" stop-color="#6832C5"/>
</linearGradient>
<linearGradient id="paint2_linear_166_342" x1="12.1321" y1="0.618278" x2="17.0872" y2="17.357" gradientUnits="userSpaceOnUse">
<stop offset="0.31" stop-color="#36D9FF"/>
<stop offset="1" stop-color="#6832C5"/>
</linearGradient>
<linearGradient id="paint3_linear_166_342" x1="9.54311" y1="0.948435" x2="14.6169" y2="18.0882" gradientUnits="userSpaceOnUse">
<stop offset="0.31" stop-color="#36D9FF"/>
<stop offset="1" stop-color="#6832C5"/>
</linearGradient>
<linearGradient id="paint4_linear_166_342" x1="6.58897" y1="3.94503" x2="11.0852" y2="19.1337" gradientUnits="userSpaceOnUse">
<stop offset="0.31" stop-color="#36D9FF"/>
<stop offset="1" stop-color="#6832C5"/>
</linearGradient>
</defs>
</svg>
