<svg width="317" height="30" viewBox="0 0 317 30" fill="none" xmlns="http://www.w3.org/2000/svg">
<g clip-path="url(#clip0_136_2)">
<path d="M31.5449 5.60335V8.96535H26.1964V7.19266C26.2016 6.95388 26.159 6.71649 26.0709 6.49473C25.9828 6.27297 25.8511 6.07141 25.6838 5.90218C25.5228 5.73546 25.3297 5.60366 25.1162 5.51489C24.9028 5.42612 24.6736 5.38227 24.4427 5.386H7.10216C6.86838 5.38303 6.63636 5.42715 6.41976 5.5158C6.20316 5.60445 6.00636 5.73581 5.84091 5.90218C5.66694 6.06742 5.52956 6.2678 5.43774 6.49017C5.34592 6.71254 5.30174 6.95192 5.30808 7.19266V22.8141C5.30448 23.0485 5.3501 23.2809 5.44192 23.4963C5.53374 23.7117 5.66971 23.9051 5.84091 24.0638C6.00636 24.2302 6.20316 24.3616 6.41976 24.4502C6.63636 24.5389 6.86838 24.583 7.10216 24.58H24.4427C24.6733 24.5809 24.9017 24.5359 25.1149 24.4474C25.328 24.359 25.5217 24.229 25.6847 24.0648C25.8477 23.9007 25.9769 23.7056 26.0647 23.491C26.1525 23.2763 26.1972 23.0463 26.1964 22.8141V19.3231H16.5245V14.4057H31.5449V24.3627C31.5467 25.099 31.404 25.8285 31.125 26.5091C30.8459 27.1897 30.4361 27.8082 29.9191 28.3288C29.402 28.8495 28.7879 29.2622 28.112 29.5432C27.4361 29.8241 26.7118 29.9678 25.9805 29.966H5.56438C4.83316 29.9678 4.10878 29.8241 3.43288 29.5432C2.75698 29.2622 2.14287 28.8495 1.62582 28.3288C1.10876 27.8082 0.698959 27.1897 0.419954 26.5091C0.140948 25.8285 -0.0017627 25.099 1.64321e-05 24.3627V5.60335C0.00534784 4.1189 0.593299 2.69677 1.63567 1.6471C2.67803 0.597429 4.09026 0.00536876 5.56438 0H25.9805C27.4546 0.00536876 28.8669 0.597429 29.9092 1.6471C30.9516 2.69677 31.5396 4.1189 31.5449 5.60335Z" fill="#1B1B1B"/>
<path d="M54.2003 14.8879H41.9317V19.3095H52.0487V22.5832H41.9317V27.0319H54.2003V29.9932H38.3907V11.8927H54.2003V14.8879Z" fill="#1B1B1B"/>
<path d="M73.9824 11.8927C75.0279 11.9016 76.0281 12.3238 76.7674 13.0683C77.5067 13.8127 77.926 14.82 77.9348 15.8728V26.0199C77.9277 27.0727 77.5088 28.0802 76.7689 28.824C76.029 29.5678 75.0278 29.9879 73.9824 29.9932H62.3073C61.786 30.0036 61.2681 29.9052 60.7864 29.7042C60.3047 29.5031 59.8695 29.2038 59.5083 28.825C59.137 28.4608 58.8433 28.0242 58.645 27.542C58.4467 27.0597 58.348 26.5419 58.355 26.0199V15.8728C58.3567 14.8178 58.7737 13.8064 59.5146 13.0604C60.2554 12.3144 61.2597 11.8945 62.3073 11.8927H73.9824ZM74.7041 25.1098V16.7829C74.7023 16.3493 74.5305 15.934 74.226 15.6274C73.9216 15.3209 73.5092 15.1478 73.0786 15.146H63.1841C62.9705 15.1437 62.7587 15.1853 62.5615 15.2682C62.3644 15.3511 62.1861 15.4736 62.0376 15.6283C61.8827 15.7768 61.7602 15.9562 61.6777 16.1549C61.5953 16.3537 61.5548 16.5675 61.5587 16.7829V25.1098C61.5548 25.3252 61.5953 25.539 61.6777 25.7378C61.7602 25.9365 61.8827 26.1159 62.0376 26.2644C62.1861 26.4191 62.3644 26.5416 62.5615 26.6245C62.7587 26.7074 62.9705 26.749 63.1841 26.7467H73.0786C73.5092 26.7449 73.9216 26.5719 74.226 26.2653C74.5305 25.9587 74.7023 25.5434 74.7041 25.1098Z" fill="#1B1B1B"/>
<path d="M99.1873 21.2316C99.1766 22.1252 98.8167 22.9786 98.1854 23.6066C97.5541 24.2347 96.7024 24.5869 95.815 24.5868H85.5495V30.0204H82.0626V11.8927H95.8284C96.7228 11.8927 97.5806 12.2505 98.2131 12.8874C98.8455 13.5242 99.2008 14.388 99.2008 15.2887L99.1873 21.2316ZM94.8977 21.3607C95.0384 21.3633 95.178 21.3356 95.3071 21.2794C95.4362 21.2232 95.5519 21.1397 95.6463 21.0347C95.7466 20.9343 95.8258 20.8146 95.8791 20.6827C95.9324 20.5509 95.9587 20.4095 95.9566 20.2672V16.2395C95.961 16.0949 95.9357 15.9508 95.8823 15.8165C95.8289 15.6821 95.7486 15.5602 95.6463 15.4585C95.5502 15.3566 95.4339 15.2761 95.3049 15.2223C95.1759 15.1685 95.0372 15.1425 94.8977 15.146H85.5495V21.3607H94.8977Z" fill="#1B1B1B"/>
<path d="M118.942 11.8927C119.989 11.8981 120.991 12.3191 121.731 13.0644C122.471 13.8096 122.89 14.8189 122.895 15.8728V26.0199C122.891 27.0738 122.474 28.0834 121.733 28.8279C120.992 29.5725 119.989 29.9914 118.942 29.9932H107.24C106.722 29.9941 106.209 29.892 105.729 29.6926C105.25 29.4933 104.815 29.2006 104.448 28.8315C104.082 28.4623 103.791 28.024 103.593 27.5415C103.395 27.059 103.294 26.542 103.295 26.0199V15.8728C103.295 14.8184 103.71 13.807 104.45 13.0608C105.19 12.3146 106.193 11.8945 107.24 11.8927H118.942ZM119.664 25.1098V16.7829C119.668 16.5675 119.628 16.3537 119.545 16.1549C119.463 15.9562 119.34 15.7768 119.185 15.6283C119.037 15.4736 118.858 15.3511 118.661 15.2682C118.464 15.1853 118.252 15.1437 118.039 15.146H108.151C107.719 15.146 107.305 15.3183 106.999 15.6251C106.693 15.9318 106.521 16.3482 106.519 16.7829V25.1098C106.521 25.5446 106.693 25.9609 106.999 26.2677C107.305 26.5744 107.719 26.7467 108.151 26.7467H118.032C118.246 26.749 118.457 26.7074 118.655 26.6245C118.852 26.5416 119.03 26.4191 119.179 26.2644C119.335 26.1165 119.458 25.9374 119.542 25.7386C119.626 25.5398 119.667 25.3257 119.664 25.1098Z" fill="#1B1B1B"/>
<path d="M127.029 11.8927H130.516V26.7467H141.982V29.9932H127.029V11.8927Z" fill="#1B1B1B"/>
<path d="M161.71 11.8927C162.757 11.8981 163.759 12.3191 164.499 13.0644C165.239 13.8096 165.658 14.8189 165.663 15.8728V26.0199C165.659 27.0738 165.242 28.0834 164.501 28.8279C163.76 29.5725 162.757 29.9914 161.71 29.9932H150.035C149.514 30.0036 148.996 29.9052 148.514 29.7042C148.033 29.5031 147.598 29.2038 147.236 28.825C146.865 28.4608 146.571 28.0242 146.373 27.542C146.175 27.0597 146.076 26.5419 146.083 26.0199V15.8728C146.085 14.8178 146.502 13.8064 147.243 13.0604C147.983 12.3144 148.988 11.8945 150.035 11.8927H161.71ZM162.432 25.1098V16.7829C162.436 16.5675 162.396 16.3537 162.313 16.1549C162.231 15.9562 162.108 15.7768 161.953 15.6283C161.805 15.4736 161.626 15.3511 161.429 15.2682C161.232 15.1853 161.02 15.1437 160.807 15.146H150.912C150.482 15.1478 150.069 15.3209 149.765 15.6274C149.46 15.934 149.289 16.3493 149.287 16.7829V25.1098C149.289 25.5434 149.46 25.9587 149.765 26.2653C150.069 26.5719 150.482 26.7449 150.912 26.7467H160.807C161.02 26.749 161.232 26.7074 161.429 26.6245C161.626 26.5416 161.805 26.4191 161.953 26.2644C162.108 26.1159 162.231 25.9365 162.313 25.7378C162.396 25.539 162.436 25.3252 162.432 25.1098Z" fill="#1B1B1B"/>
<path d="M187.745 18.6303C187.752 18.9734 187.689 19.3143 187.56 19.6321C187.432 19.9498 187.24 20.2376 186.996 20.4777L186.477 20.9464L186.996 21.4422C187.238 21.6779 187.429 21.9611 187.558 22.2742C187.687 22.5873 187.75 22.9236 187.745 23.2624V26.6176C187.752 27.064 187.667 27.507 187.495 27.9185C187.323 28.33 187.068 28.7011 186.747 29.0084C186.436 29.327 186.064 29.5786 185.653 29.7479C185.243 29.9172 184.803 30.0007 184.359 29.9932H169.791V11.8927H184.359C184.804 11.8871 185.246 11.9734 185.656 12.1463C186.067 12.3192 186.438 12.575 186.747 12.8979C187.066 13.2039 187.32 13.5729 187.492 13.9818C187.663 14.3908 187.75 14.8311 187.745 15.2751V18.6303ZM184.487 18.5013V15.9543C184.487 15.6715 184.376 15.4003 184.177 15.2003C183.979 15.0003 183.709 14.888 183.428 14.888H173.338V19.5948H183.455C183.596 19.5974 183.736 19.5697 183.865 19.5135C183.994 19.4573 184.11 19.3738 184.204 19.2688C184.299 19.1659 184.373 19.0452 184.422 18.9135C184.47 18.7818 184.493 18.6417 184.487 18.5013ZM184.487 25.9384V23.3915C184.487 23.1087 184.376 22.8374 184.177 22.6375C183.979 22.4375 183.709 22.3251 183.428 22.3251H173.338V27.032H183.455C183.596 27.0346 183.736 27.0069 183.865 26.9507C183.994 26.8944 184.11 26.811 184.204 26.7059C184.299 26.6033 184.374 26.4826 184.422 26.3509C184.471 26.2191 184.493 26.0789 184.487 25.9384Z" fill="#1B1B1B"/>
<path d="M210.906 22.427V26.5429C210.914 26.9895 210.831 27.4329 210.663 27.8463C210.494 28.2596 210.245 28.6342 209.928 28.9472C209.626 29.2689 209.26 29.5241 208.855 29.6971C208.45 29.8701 208.014 29.957 207.574 29.9524H195.232C194.736 29.9631 194.246 29.8582 193.798 29.6461C193.349 29.4341 192.956 29.1205 192.648 28.7299C192.126 28.0957 191.85 27.2919 191.873 26.4682V25.429C191.872 25.4216 191.872 25.414 191.874 25.4069C191.877 25.3998 191.881 25.3933 191.886 25.388C191.891 25.3827 191.898 25.3788 191.905 25.3764C191.912 25.3741 191.919 25.3735 191.927 25.3747H195.022C195.063 25.3747 195.076 25.3747 195.076 25.4222V25.5784C195.07 25.7263 195.093 25.874 195.145 26.0125C195.197 26.1511 195.276 26.2778 195.377 26.3849C195.478 26.4921 195.6 26.5776 195.735 26.6362C195.87 26.6949 196.015 26.7255 196.162 26.7263H206.623C206.79 26.7272 206.954 26.6875 207.102 26.6106C207.25 26.5338 207.377 26.422 207.473 26.2848C207.61 26.085 207.683 25.8481 207.682 25.6056V23.0586C207.68 22.904 207.62 22.756 207.514 22.6443C207.46 22.585 207.394 22.538 207.321 22.5064C207.248 22.4748 207.168 22.4593 207.089 22.4609H194.82C194.041 22.4574 193.294 22.1445 192.742 21.5901C192.19 21.0357 191.878 20.2846 191.873 19.4996V15.3362C191.867 14.8892 191.951 14.4455 192.12 14.0322C192.289 13.6189 192.54 13.2446 192.857 12.9318C193.163 12.6086 193.532 12.3526 193.94 12.1796C194.349 12.0066 194.788 11.9205 195.232 11.9266H207.554C207.997 11.9213 208.436 12.0078 208.845 12.1807C209.253 12.3536 209.622 12.6093 209.928 12.9318C210.245 13.2449 210.494 13.6195 210.663 14.0328C210.831 14.4461 210.914 14.8896 210.906 15.3362V16.4772C210.906 16.518 210.906 16.5316 210.859 16.5316H207.736C207.702 16.5316 207.689 16.5316 207.689 16.4772V16.321C207.691 16.1744 207.663 16.029 207.608 15.8935C207.552 15.7581 207.469 15.6355 207.365 15.5332C207.258 15.4256 207.131 15.3412 206.991 15.2851C206.85 15.229 206.7 15.2025 206.549 15.2071H196.216C196.068 15.2047 195.92 15.2324 195.782 15.2884C195.644 15.3444 195.519 15.4276 195.414 15.5332C195.306 15.6338 195.221 15.7558 195.163 15.8914C195.105 16.0271 195.075 16.1733 195.076 16.321V18.902C195.075 18.9822 195.09 19.0619 195.122 19.1357C195.153 19.2095 195.2 19.2757 195.258 19.3298C195.369 19.4368 195.516 19.4975 195.67 19.4996H207.965C208.745 19.5014 209.492 19.814 210.043 20.369C210.594 20.9239 210.904 21.6761 210.906 22.4609V22.427Z" fill="#1B1B1B"/>
<path d="M230.843 14.8879H218.582V19.3095H228.699V22.5832H218.582V27.0319H230.843V29.9932H215.041V11.8927H230.843V14.8879Z" fill="#1B1B1B"/>
<path d="M248.332 29.9932L244.737 24.5597H238.492V29.9932H235.005V11.8927H249.31C250.205 11.8927 251.063 12.2505 251.695 12.8874C252.327 13.5242 252.683 14.388 252.683 15.2887V21.2452C252.695 22.0789 252.385 22.8848 251.819 23.4933C251.268 24.1129 250.509 24.5068 249.688 24.6004L248.575 24.7023L252.089 30.0068L248.332 29.9932ZM238.492 15.146V21.3607H248.38C248.52 21.3633 248.66 21.3356 248.789 21.2794C248.918 21.2232 249.034 21.1397 249.128 21.0347C249.229 20.9343 249.308 20.8146 249.361 20.6827C249.414 20.5508 249.441 20.4095 249.439 20.2672V16.2395C249.443 16.0949 249.418 15.9508 249.364 15.8165C249.311 15.6821 249.231 15.5602 249.128 15.4585C249.032 15.3566 248.916 15.2761 248.787 15.2223C248.658 15.1685 248.519 15.1425 248.38 15.146H238.492Z" fill="#1B1B1B"/>
<path d="M271.602 11.8927H275.264L268.371 29.9932H263.65L256.783 11.8927H260.426L266.024 27.0048L271.602 11.8927Z" fill="#1B1B1B"/>
<path d="M295.174 14.8879H282.912V19.3095H293.029V22.5832H282.912V27.0319H295.174V29.9932H279.371V11.8927H295.174V14.8879Z" fill="#1B1B1B"/>
<path d="M312.663 29.9932L309.068 24.5597H302.836V29.9932H299.349V11.8927H313.628C314.522 11.8927 315.38 12.2505 316.012 12.8874C316.645 13.5242 317 14.388 317 15.2887V21.2452C317.012 22.0789 316.703 22.8848 316.137 23.4933C315.585 24.1129 314.827 24.5068 314.005 24.6004L312.892 24.7023L316.406 30.0068L312.663 29.9932ZM302.836 15.146V21.3607H312.724C312.865 21.3633 313.004 21.3356 313.133 21.2794C313.262 21.2232 313.378 21.1397 313.473 21.0347C313.573 20.9343 313.652 20.8146 313.705 20.6827C313.759 20.5508 313.785 20.4095 313.783 20.2672V16.2395C313.787 16.0949 313.762 15.9508 313.709 15.8165C313.655 15.6821 313.575 15.5602 313.473 15.4585C313.376 15.3566 313.26 15.2761 313.131 15.2223C313.002 15.1685 312.863 15.1425 312.724 15.146H302.836Z" fill="#1B1B1B"/>
</g>
<defs>
<clipPath id="clip0_136_2">
<rect width="317" height="30" fill="white"/>
</clipPath>
</defs>
</svg>
