<svg width="301" height="33" viewBox="0 0 301 33" fill="none" xmlns="http://www.w3.org/2000/svg">
<path d="M29.28 6.28V21.88C29.28 23.56 28.68 25 27.48 26.2C26.28 27.4 24.84 28 23.16 28H20.68L21.8 32.48H16.48L15.36 28H6.32C4.61333 28 3.16 27.4 1.96 26.2C0.786667 25 0.2 23.56 0.2 21.88V6.28C0.2 4.6 0.786667 3.16 1.96 1.96C3.16 0.759999 4.61333 0.159998 6.32 0.159998H23.16C24.84 0.159998 26.28 0.759999 27.48 1.96C28.68 3.16 29.28 4.6 29.28 6.28ZM24.28 20.48V7.68C24.28 6.98667 24.0267 6.4 23.52 5.92C23.04 5.41333 22.4533 5.16 21.76 5.16H7.68C6.98667 5.16 6.38667 5.41333 5.88 5.92C5.4 6.4 5.16 6.98667 5.16 7.68V20.48C5.16 21.1733 5.4 21.7733 5.88 22.28C6.38667 22.76 6.98667 23 7.68 23H14.08L13.28 19.76H18.6L19.4 23H21.76C22.4533 23 23.04 22.76 23.52 22.28C24.0267 21.7733 24.28 21.1733 24.28 20.48ZM40.8297 28C39.3897 28 38.163 27.4933 37.1497 26.48C36.1364 25.4667 35.6297 24.24 35.6297 22.8V0.159998H41.0297V21.36C41.0297 21.8133 41.1897 22.2 41.5097 22.52C41.8297 22.84 42.2164 23 42.6697 23H55.9897C56.443 23 56.8297 22.84 57.1497 22.52C57.4697 22.2 57.6297 21.8133 57.6297 21.36V0.159998H63.0297V22.8C63.0297 24.24 62.523 25.4667 61.5097 26.48C60.4964 27.4933 59.2697 28 57.8297 28H40.8297ZM74.8188 28H69.4188V0.159998H74.8188V28ZM109.417 5.36V8.48H104.417V6.84C104.417 6.36 104.257 5.96 103.937 5.64C103.617 5.32 103.23 5.16 102.777 5.16H87.8166C87.3632 5.16 86.9632 5.32 86.6166 5.64C86.2966 5.96 86.1366 6.36 86.1366 6.84V21.36C86.1366 21.8133 86.2966 22.2 86.6166 22.52C86.9632 22.84 87.3632 23 87.8166 23H102.777C103.23 23 103.617 22.84 103.937 22.52C104.257 22.2 104.417 21.8133 104.417 21.36V19.72H109.417V22.8C109.417 24.24 108.91 25.4667 107.897 26.48C106.883 27.4933 105.657 28 104.217 28H86.3766C84.9366 28 83.7099 27.4933 82.6966 26.48C81.6832 25.44 81.1766 24.2133 81.1766 22.8V5.36C81.1766 3.94667 81.6832 2.73333 82.6966 1.72C83.7099 0.679999 84.9366 0.159998 86.3766 0.159998H104.217C105.657 0.159998 106.883 0.679999 107.897 1.72C108.91 2.73333 109.417 3.94667 109.417 5.36ZM143.186 28H136.266L121.226 14.68V28H115.786V0.159998H121.226V12.68L135.426 0.159998H142.346L127.506 13.68L143.186 28ZM164.341 0.159998H169.741V23H187.461V28H164.341V0.159998ZM199.272 28H193.872V0.159998H199.272V28ZM233.03 28H225.71L211.03 6V28H205.63V0.159998H213.35L227.63 21.56V0.159998H233.03V28ZM266.78 28H259.86L244.82 14.68V28H239.38V0.159998H244.82V12.68L259.02 0.159998H265.94L251.1 13.68L266.78 28ZM300.813 16.36V22.72C300.813 24.16 300.306 25.4 299.293 26.44C298.279 27.4533 297.066 27.96 295.653 27.96L276.533 28C274.906 28 273.573 27.3733 272.533 26.12C271.733 25.16 271.333 24 271.333 22.64V21.04C271.333 20.9867 271.359 20.96 271.413 20.96L276.213 20.92C276.266 20.92 276.293 20.9467 276.293 21V21.24C276.293 21.8267 276.506 22.2933 276.933 22.64C277.253 22.88 277.599 23 277.973 23L294.173 22.96C294.706 22.96 295.146 22.7333 295.493 22.28C295.706 21.9867 295.813 21.6267 295.813 21.2V17.28C295.813 17.04 295.719 16.8267 295.533 16.64C295.373 16.4533 295.159 16.36 294.893 16.36H275.893C274.639 16.36 273.559 15.92 272.653 15.04C271.773 14.1333 271.333 13.0533 271.333 11.8V5.4C271.333 3.96 271.839 2.73333 272.853 1.72C273.866 0.679999 275.093 0.159998 276.533 0.159998H295.613C297.053 0.159998 298.279 0.679999 299.293 1.72C300.306 2.73333 300.813 3.96 300.813 5.4V7.16C300.813 7.21333 300.786 7.24 300.733 7.24H295.893C295.839 7.24 295.813 7.21333 295.813 7.16V6.92C295.813 6.44 295.639 6.04 295.293 5.72C294.973 5.37333 294.559 5.2 294.053 5.2H278.053C277.573 5.2 277.159 5.37333 276.813 5.72C276.466 6.04 276.293 6.44 276.293 6.92V10.88C276.293 11.1467 276.386 11.3733 276.573 11.56C276.759 11.72 276.973 11.8 277.213 11.8H296.253C297.506 11.8 298.573 12.2533 299.453 13.16C300.359 14.04 300.813 15.1067 300.813 16.36Z" fill="#1B1B1B"/>
</svg>
