<svg width="133" height="28" viewBox="0 0 133 28" fill="none" xmlns="http://www.w3.org/2000/svg">
<path d="M0.2 0.159998H5.6V23H23.32V28H0.2V0.159998ZM53.9313 0.159998C55.6113 0.159998 57.0513 0.759999 58.2513 1.96C59.4513 3.16 60.0513 4.6 60.0513 6.28V21.88C60.0513 23.56 59.4513 25 58.2513 26.2C57.0513 27.4 55.6113 28 53.9313 28H35.8513C34.1446 28 32.6913 27.4 31.4913 26.2C30.3179 25 29.7313 23.56 29.7313 21.88V6.28C29.7313 4.6 30.3179 3.16 31.4913 1.96C32.6913 0.759999 34.1446 0.159998 35.8513 0.159998H53.9313ZM55.0513 20.48V7.68C55.0513 6.98667 54.7979 6.4 54.2913 5.92C53.8113 5.41333 53.2246 5.16 52.5313 5.16H37.2113C36.5179 5.16 35.9179 5.41333 35.4113 5.92C34.9313 6.4 34.6913 6.98667 34.6913 7.68V20.48C34.6913 21.1733 34.9313 21.7733 35.4113 22.28C35.9179 22.76 36.5179 23 37.2113 23H52.5313C53.2246 23 53.8113 22.76 54.2913 22.28C54.7979 21.7733 55.0513 21.1733 55.0513 20.48ZM95.93 5.36V8.48H90.93V6.84C90.93 6.36 90.77 5.96 90.45 5.64C90.13 5.32 89.7433 5.16 89.29 5.16H73.09C72.6367 5.16 72.2367 5.32 71.89 5.64C71.57 5.96 71.41 6.36 71.41 6.84V21.36C71.41 21.8133 71.57 22.2 71.89 22.52C72.2367 22.84 72.6367 23 73.09 23H89.29C89.7433 23 90.13 22.84 90.45 22.52C90.77 22.2 90.93 21.8133 90.93 21.36V18.12H81.89V13.56H95.93V22.8C95.93 24.24 95.4233 25.4667 94.41 26.48C93.3967 27.4933 92.17 28 90.73 28H71.65C70.21 28 68.9833 27.4933 67.97 26.48C66.9567 25.4667 66.45 24.24 66.45 22.8V5.36C66.45 3.94667 66.9567 2.73333 67.97 1.72C68.9833 0.679999 70.21 0.159998 71.65 0.159998H90.73C92.17 0.159998 93.3967 0.679999 94.41 1.72C95.4233 2.73333 95.93 3.94667 95.93 5.36ZM126.548 0.159998C128.228 0.159998 129.668 0.759999 130.868 1.96C132.068 3.16 132.668 4.6 132.668 6.28V21.88C132.668 23.56 132.068 25 130.868 26.2C129.668 27.4 128.228 28 126.548 28H108.468C106.762 28 105.308 27.4 104.108 26.2C102.935 25 102.348 23.56 102.348 21.88V6.28C102.348 4.6 102.935 3.16 104.108 1.96C105.308 0.759999 106.762 0.159998 108.468 0.159998H126.548ZM127.668 20.48V7.68C127.668 6.98667 127.415 6.4 126.908 5.92C126.428 5.41333 125.842 5.16 125.148 5.16H109.828C109.135 5.16 108.535 5.41333 108.028 5.92C107.548 6.4 107.308 6.98667 107.308 7.68V20.48C107.308 21.1733 107.548 21.7733 108.028 22.28C108.535 22.76 109.135 23 109.828 23H125.148C125.842 23 126.428 22.76 126.908 22.28C127.415 21.7733 127.668 21.1733 127.668 20.48Z" fill="#1B1B1B"/>
</svg>
